# xmcd
# 
# Track frame offsets:
#     150
#     17150
#     33052
#     50535
#     63910
#     77692
#     91617
#     101410
#     115215
#     124172
#     142022
#     152652
#     165282
#     185727
#     212410
#     236222
# 
# Disc length: 3395
# 
# Revision: 6
# Processed by: cddbd v1.5.2PL0 Copyright (c) Steve Scherf et al.
# Submitted via: fre:ac v1.0.31
# 
DISCID=c80d4110
DTITLE=Howlin' Wolf - The London Howlin' Wolf Sessions Deluxe Edition Disc 1
DYEAR=1971
DGENRE=Blues
TTITLE0=Rockin' Daddy
TTITLE1=I Ain't Superstitious
TTITLE2=Sittin' on Top of the World
TTITLE3=Worried About My Baby
TTITLE4=What a Woman!
TTITLE5=Poor Boy
TTITLE6=Built for Comfort
TTITLE7=Who's Been Talking?
TTITLE8=The Red Rooster [false start]
TTITLE9=The Red Rooster
TTITLE10=Do the Do
TTITLE11=Highway 49
TTITLE12=Wang Dang Doodle
TTITLE13=Goin' Down Slow
TTITLE14=Killing Floor
TTITLE15=I Want to Have a Word with You
EXTD=Howlin' Wolf [Chester Arthur Burnett, 1910/1976]: vocals, harmonica [CDI/tracks 4,8 - II/1,4,5), acoustic guitar (I/9), 2nd guitar (I/15]\nEric Clapton: lead guitar\nHubert Sumlin: guitar\nJeffery M. Carp: harmonica\nBill Wyman: bass guitar, shaker
EXTD=, cowbell\nCharlie Watts: drums, conga, percussion\nSteve Winwood (I/1-13 - II/9-12): piano, organ\nIan Stewart (I/1,7,11,13 - II/1,3,4,7,8,10,12): piano\nRingo Starr [credited as "Richie"] (I/2 - II/6): drums\nKlaus Voorman (I/2 - II/6): bass\nJohn Simo
EXTD=n (I/8): piano\nPhil Upchurch (I/1 - II/12): bass\nLafayette Leake (I/3,4,10 - II/2): piano\nJoe Miller, Jordan Sandke, Dennis Lansing: horns (I/2,7 - II/6]\nPrincipally recorded by Glyn Johns at Olympic Sound Studios, London GB, 1970-05-02/07.\nProduce
EXTD=d by Norman Dayron.\nDisc I/tracks 1-13 originally issued as Chess CH-60008 (Summer 1971).\nTracks I/14-16 originally issued on "London Revisited", Chess LP 60026 (1974-02).\nDisc II previously unissued.\nDeluxe Edition supervised by Andy McKaie.\nRe
EXTD=mastered by Erick Labson at Universal Mastering Studios-West, North Hollywood US-CA.\n2CD: MCA/Chess 12985 (2003-03-04), UPC 008811298524.
EXTT0=(Chester Burnett)
EXTT1=(Willie Dixon)
EXTT2=(Lonnie Chatmon/Walter Vinson)
EXTT3=(Chester Burnett)
EXTT4=(James Burke Oden)
EXTT5=(Chester Burnett)
EXTT6=(Willie Dixon)
EXTT7=(Chester Burnett)
EXTT8=(Willie Dixon)
EXTT9=(Willie Dixon)
EXTT10=(Willie Dixon)
EXTT11=(Big Joe Williams)
EXTT12=(Willie Dixon)
EXTT13=(James Burke Oden)
EXTT14=(Chester Burnett)
EXTT15=(Chester Burnett)
PLAYORDER=
